<svg width="256" height="256" viewBox="0 0 256 256" fill="none" xmlns="http://www.w3.org/2000/svg">
<g id="iitm logo">
<g id="XMLID_1_">
<path id="XMLID_2_" d="M221.44 128C221.44 179.61 179.61 221.44 128 221.44C76.3904 221.44 34.56 179.61 34.56 128C34.56 76.3905 76.3904 34.5601 128 34.5601C179.61 34.5601 221.44 76.3905 221.44 128Z" fill="#781F19"/>
<path id="XMLID_3_" d="M200.09 128C200.09 167.834 167.782 200.09 128 200.09C88.1664 200.09 55.9104 167.782 55.9104 128C55.9104 88.1664 88.2176 55.9104 128 55.9104C167.834 55.9104 200.09 88.1664 200.09 128Z" fill="#D6A64F"/>
<path id="XMLID_4_" d="M200.09 128H199.834C199.834 147.866 191.795 165.837 178.79 178.842C165.786 191.846 147.814 199.885 127.949 199.885C108.083 199.885 90.112 191.846 77.1072 178.842C64.1024 165.837 56.064 147.866 56.064 128C56.064 108.134 64.1024 90.1632 77.1072 77.1584C90.112 64.1536 108.083 56.1152 127.949 56.1152C147.814 56.1152 165.786 64.1536 178.79 77.1584C191.795 90.1632 199.834 108.134 199.834 128H200.09H200.346C200.346 88.064 167.936 55.6544 128 55.6544C88.064 55.6544 55.6544 88.064 55.6544 128C55.6544 167.936 88.064 200.346 128 200.346C167.936 200.346 200.346 167.936 200.346 128H200.09Z" fill="white"/>
<path id="XMLID_5_" d="M65.536 190.054L73.3184 182.118L75.1104 183.91L67.328 191.795L65.536 190.054Z" fill="white"/>
<path id="XMLID_6_" d="M71.0144 179.917L62.4128 186.88L60.5696 184.576L62.2592 180.224C62.7712 178.995 63.4368 177.613 64.0512 176.435V176.384C63.0272 177.408 61.8496 178.381 60.5696 179.456L58.0608 181.504L56.6272 179.712L65.2288 172.749L66.8672 174.797L65.024 179.354C64.512 180.634 63.8464 182.067 63.1808 183.296L63.232 183.347C64.3584 182.375 65.536 181.351 66.9184 180.224L69.5296 178.125L71.0144 179.917Z" fill="white"/>
<path id="XMLID_7_" d="M60.5696 168.96C60.5184 168.755 60.3136 168.448 60.16 168.192C59.0336 166.195 57.1904 165.53 54.8864 166.861C52.8384 168.038 52.48 169.779 53.5552 171.674C53.8112 172.134 54.0672 172.442 54.2208 172.595L60.5696 168.96ZM53.9648 175.616C53.3504 174.899 52.6848 173.875 52.0704 172.8C50.9952 170.957 50.6368 169.574 50.7904 168.294C50.944 166.861 51.8144 165.53 53.504 164.557C55.3472 163.482 56.9856 163.43 58.3168 163.891C59.7504 164.403 61.0304 165.734 62.1056 167.629C62.7712 168.755 63.1296 169.626 63.3856 170.189L53.9648 175.616Z" fill="white"/>
<path id="XMLID_10_" d="M46.4384 161.229L56.6272 156.877L57.6 159.181L47.4112 163.533L46.4384 161.229Z" fill="white"/>
<path id="XMLID_11_" d="M49.3568 150.118L47.3088 151.45C46.7456 151.808 45.9776 152.218 45.4144 152.576V152.627C46.08 152.576 46.9504 152.525 47.616 152.474H50.0736L49.3568 150.118ZM51.968 152.269L54.9376 152.218L55.6544 154.726L44.032 154.624L43.1104 151.501L52.7872 145.05L53.5552 147.661L51.0464 149.299L51.968 152.269Z" fill="white"/>
<path id="XMLID_14_" d="M52.2752 142.592L41.2672 144.026L40.9088 141.107L44.6464 138.291C45.7216 137.472 47.0016 136.653 48.1792 135.987V135.936C46.7456 136.294 45.2608 136.499 43.6224 136.755L40.448 137.165L40.1408 134.861L51.1488 133.427L51.5072 136.038L47.5648 138.957C46.4384 139.776 45.1584 140.698 43.9296 141.363V141.414C45.3632 141.158 46.9504 140.902 48.7424 140.698L52.0704 140.288L52.2752 142.592Z" fill="white"/>
<path id="XMLID_15_" d="M40.0896 123.034L51.1488 123.494L51.0464 126.003L39.9872 125.542L40.0896 123.034Z" fill="white"/>
<path id="XMLID_16_" d="M51.3024 120.32L40.3456 118.579L40.8064 115.712L45.1584 114.074C46.4384 113.613 47.872 113.203 49.2032 112.896V112.845C47.7184 112.743 46.2336 112.589 44.5952 112.333L41.4208 111.821L41.7792 109.568L52.736 111.309L52.3264 113.92L47.7184 115.61C46.4384 116.071 44.9024 116.583 43.5712 116.89V116.941C45.056 117.095 46.592 117.299 48.384 117.607L51.6608 118.119L51.3024 120.32Z" fill="white"/>
<path id="XMLID_17_" d="M51.1488 107.315C51.6608 106.803 52.3264 105.882 52.6336 104.858C52.992 103.782 52.6848 103.014 52.0192 102.81C51.3536 102.605 50.8416 102.963 49.9712 104.141C48.7936 105.677 47.4624 106.547 45.9264 106.086C44.1344 105.523 43.2128 103.578 44.032 101.069C44.3904 99.8401 44.9024 99.0721 45.4144 98.5601L47.1552 99.6865C46.848 100.045 46.2848 100.71 45.9776 101.734C45.6704 102.758 45.9776 103.424 46.5408 103.578C47.2064 103.782 47.7184 103.322 48.64 102.093C49.92 100.454 51.1488 99.8913 52.6848 100.352C54.4768 100.915 55.552 102.707 54.6304 105.626C54.272 106.854 53.5552 107.93 53.0432 108.442L51.1488 107.315Z" fill="white"/>
<path id="XMLID_18_" d="M49.4592 93.0816L48.1792 95.7952L46.2848 94.9248L49.8688 87.1936L51.7632 88.064L50.4832 90.8288L58.624 94.6176L57.6 96.8704L49.4592 93.0816Z" fill="white"/>
<path id="XMLID_19_" d="M52.8896 82.0225L62.4128 87.7057L61.1328 89.8561L51.6096 84.1729L52.8896 82.0225Z" fill="white"/>
<path id="XMLID_20_" d="M58.1632 77.9264L56.3712 80.3328L54.6816 79.0528L59.7504 72.192L61.44 73.472L59.648 75.8784L66.8672 81.2544L65.3824 83.2512L58.1632 77.9264Z" fill="white"/>
<path id="XMLID_21_" d="M64.0512 67.4817L68.5568 71.9873C69.9392 73.3185 71.1168 73.5233 72.0384 72.6017C72.96 71.6801 72.8064 70.5025 71.424 69.1201L66.9184 64.6145L68.6592 62.8225L73.0624 67.2257C75.4688 69.6321 75.4176 71.9873 73.4208 74.0865C71.4752 76.0833 69.1712 76.1345 66.7136 73.6257L62.3104 69.2737L64.0512 67.4817Z" fill="white"/>
<path id="XMLID_22_" d="M75.264 60.1089L72.9088 61.9009L71.6288 60.2625L78.4384 55.0913L79.7184 56.7809L77.2608 58.6241L82.688 65.7921L80.6912 67.2769L75.264 60.1089Z" fill="white"/>
<path id="XMLID_23_" d="M90.4704 55.3984L86.9376 57.3952L88.2688 59.6992L92.2112 57.4464L93.2352 59.2384L87.0912 62.72L81.6128 53.0944L87.552 49.7152L88.5248 51.5072L84.7872 53.6576L85.9136 55.6544L89.4976 53.6064L90.4704 55.3984Z" fill="white"/>
<path id="XMLID_24_" d="M103.629 53.0945C105.216 52.5825 105.677 50.7393 105.011 48.6913C104.397 46.7969 102.963 45.4657 101.325 45.9777C99.6864 46.4897 99.2768 48.3841 99.9424 50.3809C100.557 52.3777 102.042 53.6065 103.629 53.0945ZM104.141 54.9889C101.018 56.0129 98.4064 54.2209 97.4336 51.2513C96.4096 48.0769 97.6896 45.0561 100.762 44.0833C103.987 43.0081 106.547 44.9025 107.52 47.7697C108.646 51.2513 107.264 54.0161 104.141 54.9889Z" fill="white"/>
<path id="XMLID_27_" d="M110.08 41.7281L116.736 40.6017L117.043 42.6497L112.845 43.3665L113.306 45.8241L117.197 45.1585L117.555 47.2065L113.613 47.8721L114.381 52.2753L111.923 52.6849L110.08 41.7281Z" fill="white"/>
<path id="XMLID_28_" d="M128.051 42.0353L125.082 41.9841V39.8849L133.632 40.0385L133.581 42.1377L130.56 42.0865L130.406 51.0977L127.898 51.0465L128.051 42.0353Z" fill="white"/>
<path id="XMLID_29_" d="M142.95 47.6672L138.906 47.104L138.547 49.664L143.053 50.3297L142.746 52.3777L135.782 51.3537L137.37 40.3969L144.128 41.3697L143.821 43.4177L139.52 42.8032L139.213 45.056L143.258 45.6192L142.95 47.6672Z" fill="white"/>
<path id="XMLID_30_" d="M153.293 54.8864C152.832 54.9888 151.706 54.9376 150.426 54.5792C146.739 53.5552 145.51 50.688 146.381 47.616C147.405 43.9808 150.579 42.7008 153.805 43.6224C155.034 43.9808 155.955 44.4928 156.314 44.8512L155.29 46.592C154.88 46.2336 154.266 45.8752 153.395 45.6192C151.501 45.056 149.658 45.824 148.992 48.1792C148.378 50.3296 149.248 52.0192 151.398 52.6336C152.166 52.8384 152.986 52.9408 153.549 52.8384L153.293 54.8864Z" fill="white"/>
<path id="XMLID_31_" d="M162.611 47.0017L160.87 50.8929L164.608 52.6337L166.4 48.7425L168.653 49.7665L164.045 59.8529L161.792 58.8289L163.686 54.6305L159.949 52.8897L158.003 57.0881L155.75 56.0641L160.358 45.9777L162.611 47.0017Z" fill="white"/>
<path id="XMLID_32_" d="M166.861 61.3889L173.005 52.1729L175.462 53.8112L175.104 58.4704C175.002 59.8016 174.746 61.3377 174.49 62.6177H174.541C175.206 61.3377 176.026 60.0577 176.947 58.6241L178.739 55.9617L180.634 57.2417L174.49 66.4577L172.288 64.9729L172.698 60.1089C172.8 58.7265 173.005 57.1393 173.261 55.8081L173.21 55.7569C172.442 57.0369 171.622 58.3681 170.598 59.8529L168.755 62.6177L166.861 61.3889Z" fill="white"/>
<path id="XMLID_33_" d="M181.76 70.4513C182.989 71.6289 184.781 71.1169 186.266 69.5297C187.648 68.0961 188.109 66.2017 186.829 65.0241C185.549 63.8465 183.706 64.4097 182.272 65.9457C180.89 67.3793 180.48 69.2737 181.76 70.4513ZM180.275 71.7825C177.869 69.5297 178.176 66.4065 180.326 64.1025C182.579 61.6961 185.856 61.3377 188.211 63.5393C190.72 65.8433 190.31 69.0177 188.211 71.2193C185.754 73.9329 182.682 74.0353 180.275 71.7825Z" fill="white"/>
<path id="XMLID_36_" d="M194.765 70.5024L196.301 72.448L189.286 78.08L192.051 81.5104L190.413 82.8416L186.112 77.4656L194.765 70.5024Z" fill="white"/>
<path id="XMLID_37_" d="M195.584 87.5008C196.454 88.9344 198.349 88.9856 200.192 87.8592C201.882 86.8352 202.906 85.1456 201.984 83.6608C201.114 82.176 199.168 82.2272 197.376 83.3024C195.584 84.3776 194.714 86.0672 195.584 87.5008ZM193.792 88.4736C192.102 85.6576 193.229 82.7392 195.942 81.1008C198.81 79.4112 202.035 79.9232 203.725 82.7392C205.466 85.6576 204.237 88.576 201.626 90.1632C198.502 92.0064 195.482 91.2384 193.792 88.4736Z" fill="white"/>
<path id="XMLID_40_" d="M201.779 103.834C201.267 103.219 200.397 101.99 199.834 100.608C199.066 98.7137 199.014 97.1777 199.526 95.8465C200.038 94.5665 201.216 93.4913 202.701 92.8769C206.131 91.5457 209.101 93.2353 210.432 96.6145C210.944 97.9457 211.098 99.0721 211.098 99.6865L208.998 99.9425C209.05 99.2769 208.947 98.5089 208.486 97.3825C207.718 95.4369 206.029 94.4129 203.776 95.2833C201.626 96.1537 200.909 97.9457 201.677 99.8913C201.882 100.403 202.138 100.813 202.24 100.966L204.39 100.096L203.776 98.5089L205.619 97.7921L207.155 101.632L201.779 103.834Z" fill="white"/>
<path id="XMLID_41_" d="M202.701 109.363L207.104 108.339L212.685 103.475L213.35 106.291L210.995 107.981C210.278 108.493 209.766 108.851 209.101 109.312V109.363C209.818 109.466 210.534 109.568 211.354 109.722L214.221 110.234L214.835 112.998L207.718 110.899L203.213 111.923L202.701 109.363Z" fill="white"/>
<path id="XMLID_42_" d="M209.254 131.174C210.586 131.123 212.173 131.021 213.811 131.021V130.97C212.378 130.611 210.79 130.202 209.51 129.792L205.158 128.512L205.107 126.566L209.357 125.338C210.688 124.979 212.224 124.57 213.709 124.262V124.211C212.224 124.16 210.483 124.16 209.101 124.109L204.902 123.955L204.851 121.651L215.962 122.163L216.013 125.491L212.326 126.618C211.046 126.976 209.664 127.334 208.384 127.642V127.693C209.664 127.949 211.149 128.307 212.378 128.666L216.064 129.792L216.115 133.069L205.056 133.837L205.005 131.379L209.254 131.174Z" fill="white"/>
<path id="XMLID_43_" d="M208.333 142.848L210.79 142.541C211.456 142.49 212.326 142.439 212.992 142.387V142.336C212.378 142.08 211.558 141.773 210.944 141.517L208.742 140.442L208.333 142.848ZM206.95 139.776L204.288 138.547L204.749 135.987L215.091 141.21L214.528 144.384L203.008 145.92L203.469 143.258L206.438 142.899L206.95 139.776Z" fill="white"/>
<path id="XMLID_46_" d="M203.366 151.296C203.264 151.501 203.11 151.808 203.059 152.115C202.291 154.266 203.008 156.109 205.517 156.928C207.77 157.696 209.306 156.774 209.971 154.726C210.125 154.214 210.227 153.856 210.227 153.6L203.366 151.296ZM212.736 151.859C212.582 152.781 212.275 153.958 211.866 155.136C211.2 157.133 210.432 158.362 209.306 159.078C208.128 159.898 206.592 160.154 204.698 159.488C202.701 158.822 201.574 157.594 201.011 156.314C200.448 154.88 200.602 153.037 201.318 150.989C201.728 149.76 202.138 148.89 202.394 148.326L212.736 151.859Z" fill="white"/>
<path id="XMLID_49_" d="M202.445 165.069L201.984 165.939C201.421 167.066 201.626 167.987 202.496 168.448C203.366 168.909 204.186 168.55 204.698 167.526C204.954 166.963 205.107 166.656 205.158 166.502L202.445 165.069ZM207.77 165.069C207.514 165.837 207.053 166.963 206.438 168.141C205.67 169.626 204.954 170.496 203.981 170.906C203.213 171.264 202.342 171.213 201.421 170.752C200.192 170.086 199.782 168.755 199.936 167.782H199.885C199.27 168.346 198.4 168.346 197.376 168.141C196.096 167.885 194.662 167.475 194.202 167.475L195.379 165.222C195.738 165.222 196.659 165.376 198.042 165.734C199.424 166.093 199.987 165.837 200.448 164.915L200.806 164.25L196.915 162.253L198.042 160.051L207.77 165.069Z" fill="white"/>
<path id="XMLID_52_" d="M193.587 176.742L195.891 177.562C196.506 177.818 197.325 178.125 197.939 178.381L197.99 178.33C197.53 177.818 196.966 177.203 196.557 176.691L195.021 174.746L193.587 176.742ZM193.69 173.363L191.846 171.059L193.382 168.96L200.397 178.227L198.451 180.89L187.443 177.203L189.03 175.002L191.846 175.974L193.69 173.363Z" fill="white"/>
<path id="XMLID_55_" d="M187.546 180.787C186.829 181.043 185.856 181.555 185.139 182.323C184.32 183.143 184.269 183.911 184.781 184.423C185.242 184.883 185.907 184.781 187.187 184.167C188.928 183.296 190.515 183.142 191.693 184.269C193.075 185.6 192.973 187.699 191.181 189.594C190.31 190.515 189.491 190.976 188.826 191.232L187.75 189.44C188.211 189.287 188.979 188.928 189.747 188.16C190.515 187.392 190.515 186.624 190.106 186.266C189.594 185.754 188.928 186.01 187.546 186.675C185.651 187.597 184.32 187.546 183.142 186.419C181.811 185.139 181.658 183.04 183.757 180.839C184.627 179.917 185.754 179.251 186.419 179.047L187.546 180.787Z" fill="white"/>
<path id="XMLID_56_" d="M180.224 194.048C180.224 194.97 179.507 195.686 178.586 195.686C177.664 195.686 176.947 194.97 176.947 194.048C176.947 193.126 177.664 192.41 178.586 192.41C179.456 192.41 180.224 193.126 180.224 194.048Z" fill="white"/>
<path id="XMLID_57_" d="M79.0528 194.048C79.0528 194.97 78.336 195.686 77.4144 195.686C76.4928 195.686 75.776 194.97 75.776 194.048C75.776 193.126 76.4928 192.41 77.4144 192.41C78.336 192.41 79.0528 193.126 79.0528 194.048Z" fill="white"/>
<path id="XMLID_58_" d="M88.7808 172.135L114.995 176.845L112.179 180.122L137.882 182.323L135.322 184.423L160.717 185.549L127.13 188.877L131.328 185.139L104.704 182.426L109.158 179.149L88.7808 172.135Z" fill="white"/>
<path id="XMLID_59_" d="M85.76 194.919L88.064 196.25C88.064 195.789 88.1152 195.379 88.2176 194.97C88.32 194.56 88.4736 194.202 88.6784 193.843C88.9856 193.28 89.4976 192.973 90.1632 192.819C90.8288 192.666 91.4432 192.819 92.0576 193.178C92.8256 193.639 93.44 194.407 93.952 195.584C94.464 196.762 94.7712 198.144 94.8736 199.731L94.4128 199.783C94.3104 198.605 94.0032 197.581 93.5424 196.659C93.0816 195.738 92.416 195.072 91.648 194.611C91.2384 194.355 90.7264 194.355 90.2144 194.56C89.7024 194.765 89.2416 195.123 88.9344 195.687C88.6784 196.096 88.576 196.352 88.5248 196.557L89.4464 197.069L89.6 198.503L88.3712 197.786L84.1216 205.056L83.3024 203.469L87.0912 197.018L85.9136 196.352L85.76 194.919Z" fill="white"/>
<path id="XMLID_60_" d="M91.7504 200.96C91.648 201.421 91.4432 201.882 91.2384 202.394C91.392 202.752 91.5968 203.059 91.8016 203.264C92.0064 203.52 92.2112 203.674 92.4672 203.827C92.7232 203.93 92.9792 204.032 93.2864 203.981C93.5936 203.981 93.9008 203.93 94.1568 203.776L95.3344 201.37L91.904 199.68C91.904 200.09 91.904 200.499 91.7504 200.96ZM92.0576 208.077L93.3888 205.312C93.2864 205.312 93.1328 205.312 92.9792 205.261C92.8256 205.21 92.6208 205.107 92.3648 205.005C92.0064 204.851 91.6992 204.544 91.392 204.134C91.136 203.725 90.9312 203.264 90.7776 202.752C90.4704 203.059 90.112 203.315 89.7536 203.469C89.3952 203.622 89.0368 203.674 88.6784 203.622C88.9344 204.954 89.4464 206.285 90.2144 207.667L89.2928 208.077C87.9104 204.186 87.4496 201.83 87.808 201.011C87.9104 200.806 88.064 200.653 88.2688 200.55C88.4736 200.448 88.6272 200.448 88.7808 200.55C88.9856 200.653 89.088 200.806 89.1904 201.011C89.2928 201.216 89.344 201.472 89.344 201.779C89.6512 201.779 89.9584 201.677 90.2656 201.523C90.5216 201.37 90.7264 201.114 90.88 200.806C90.9824 200.55 91.0848 200.294 91.136 200.038C91.1872 199.782 91.1872 199.578 91.136 199.322L88.576 198.093L88.32 196.71L97.6384 201.216L97.8944 202.598L96.6144 201.984L92.928 209.562L92.0576 208.077Z" fill="white"/>
<path id="XMLID_63_" d="M96.7168 200.755L99.2256 201.728C99.1744 201.318 99.1232 200.858 99.1744 200.448C99.2256 200.038 99.328 199.629 99.4304 199.27C99.6864 198.656 100.096 198.246 100.71 198.042C101.325 197.837 101.99 197.837 102.656 198.093C103.475 198.4 104.243 199.117 104.909 200.141C105.574 201.216 106.086 202.496 106.496 204.083L106.035 204.237C105.728 203.11 105.318 202.138 104.704 201.318C104.09 200.499 103.373 199.936 102.554 199.629C102.093 199.424 101.632 199.475 101.12 199.782C100.608 200.09 100.25 200.499 100.045 201.114C99.8912 201.523 99.7888 201.83 99.7888 202.035L100.762 202.394L101.12 203.776L99.7888 203.264L96.7168 211.098L95.6416 209.664L98.3552 202.701L97.0752 202.189L96.7168 200.755Z" fill="white"/>
<path id="XMLID_64_" d="M101.683 212.019C101.786 212.173 101.939 212.326 102.144 212.378C102.554 212.48 103.014 212.48 103.475 212.327C103.936 212.173 104.346 211.866 104.704 211.456C103.885 211.2 103.322 210.944 103.066 210.637C102.707 210.637 102.4 210.688 102.144 210.842C101.888 210.995 101.683 211.2 101.632 211.456C101.581 211.661 101.581 211.866 101.683 212.019ZM109.619 205.159L110.131 206.49L108.493 205.978L107.725 208.538L104.141 207.463C103.885 207.36 103.578 207.411 103.322 207.565C103.066 207.718 102.912 207.975 102.81 208.231C102.707 208.538 102.758 208.896 102.963 209.203C103.168 209.511 103.475 209.715 103.885 209.869L105.011 210.125C105.011 210.022 105.011 209.971 104.96 209.869C104.96 209.766 104.96 209.715 104.96 209.664C105.011 209.408 105.216 209.255 105.472 209.152C105.728 209.05 106.035 209.05 106.342 209.152C106.65 209.255 106.906 209.459 107.059 209.767C107.213 210.074 107.264 210.432 107.11 210.791C107.059 211.047 106.906 211.2 106.65 211.354C106.445 211.507 106.138 211.61 105.83 211.61L107.264 214.426L106.394 214.733L105.626 212.634C105.165 212.992 104.653 213.248 104.141 213.351C103.629 213.453 103.117 213.453 102.605 213.299C102.042 213.146 101.478 212.736 101.018 212.173C100.557 211.61 100.352 211.149 100.454 210.739C100.506 210.586 100.557 210.483 100.608 210.381C100.659 210.278 100.762 210.176 100.864 210.074C100.25 209.818 99.7888 209.51 99.4816 209.05C99.1744 208.589 99.072 208.128 99.2256 207.719C99.2768 207.565 99.3792 207.36 99.584 207.155C99.7888 206.951 100.045 206.746 100.352 206.541L101.325 208.026C101.12 208.128 100.915 208.23 100.762 208.333C100.608 208.435 100.557 208.589 100.506 208.691C100.454 208.845 100.506 209.05 100.659 209.203C100.813 209.408 101.018 209.51 101.274 209.613L102.195 209.306C101.99 208.947 101.837 208.589 101.786 208.231C101.734 207.821 101.734 207.463 101.837 207.104C101.99 206.695 102.298 206.387 102.758 206.183C103.27 205.978 103.782 205.978 104.397 206.183L106.496 206.797L106.854 205.517L99.9424 203.469L99.4304 202.138L109.619 205.159Z" fill="white"/>
<path id="XMLID_67_" d="M110.387 207.104C110.592 207.36 110.899 207.565 111.309 207.667L111.616 206.08C111.667 205.927 111.616 205.722 111.565 205.619C111.514 205.466 111.462 205.415 111.36 205.363C111.053 205.312 110.797 205.363 110.592 205.517C110.336 205.671 110.234 205.927 110.182 206.183C110.08 206.541 110.182 206.797 110.387 207.104ZM113.408 205.824L118.016 206.643L118.63 207.923L117.248 207.667L115.763 215.962L114.432 214.733L114.893 212.275L112.179 211.763L112.026 212.685C111.974 212.89 111.872 213.043 111.77 213.197C111.616 213.299 111.462 213.351 111.36 213.351C110.899 213.248 110.438 212.89 110.029 212.173C109.568 211.456 109.414 210.893 109.466 210.381C109.466 210.279 109.568 210.176 109.722 210.074C109.875 210.023 110.029 209.971 110.182 210.023L110.95 210.176L111.258 208.384C110.541 208.026 109.978 207.616 109.619 207.002C109.261 206.439 109.107 205.875 109.21 205.261C109.261 204.903 109.466 204.595 109.824 204.391C110.182 204.186 110.541 204.135 110.95 204.186C111.514 204.288 112.026 204.698 112.486 205.415C112.947 206.131 113.101 206.797 112.998 207.36L112.435 210.381L115.149 210.893L115.814 207.309L114.022 207.002L113.408 205.824Z" fill="white"/>
<path id="XMLID_70_" d="M115.763 201.984C116.173 201.677 116.582 201.574 117.094 201.626C117.606 201.677 118.067 201.882 118.426 202.189C118.835 202.496 119.091 202.906 119.245 203.418L118.938 203.674C118.784 203.418 118.63 203.264 118.426 203.11C118.221 202.957 118.016 202.906 117.811 202.854C117.35 202.803 116.992 202.906 116.634 203.213C116.275 203.469 116.07 203.827 116.019 204.288C115.968 204.544 116.019 204.8 116.122 205.107C116.224 205.414 116.429 205.722 116.634 206.029L116.224 206.285C115.814 205.824 115.456 205.312 115.302 204.749C115.098 204.186 115.046 203.674 115.098 203.11C115.098 202.65 115.354 202.24 115.763 201.984Z" fill="white"/>
<path id="XMLID_71_" d="M119.347 212.941C119.552 213.146 119.859 213.299 120.218 213.299C120.678 213.35 121.19 213.248 121.754 213.043C122.317 212.838 122.829 212.582 123.392 212.173C123.085 211.763 122.778 211.405 122.419 211.2C122.061 210.944 121.702 210.842 121.344 210.79C120.781 210.739 120.269 210.842 119.808 211.149C119.398 211.405 119.142 211.763 119.142 212.173C119.04 212.48 119.091 212.736 119.347 212.941ZM125.798 207.258L126.566 208.486L125.133 208.384L124.518 216.781L123.085 215.706L123.238 213.811C122.829 214.067 122.47 214.323 122.061 214.426C121.651 214.579 121.293 214.63 120.883 214.579C120.166 214.528 119.501 214.118 118.784 213.453C118.118 212.736 117.811 212.07 117.862 211.405C117.914 210.842 118.17 210.381 118.682 210.022C119.194 209.664 119.757 209.51 120.422 209.562C120.986 209.613 121.549 209.818 122.112 210.176C122.675 210.534 123.085 210.995 123.443 211.61L123.699 208.282L117.606 207.821L116.838 206.592L125.798 207.258Z" fill="white"/>
<path id="XMLID_74_" d="M124.877 207.155L127.539 207.207C127.334 206.797 127.181 206.439 127.078 206.029C126.976 205.619 126.925 205.21 126.925 204.8C126.925 204.186 127.181 203.623 127.693 203.213C128.205 202.803 128.819 202.547 129.536 202.599C130.406 202.599 131.379 203.008 132.352 203.776C133.376 204.544 134.298 205.568 135.219 206.899L134.81 207.155C134.144 206.183 133.376 205.415 132.506 204.903C131.635 204.339 130.765 204.083 129.894 204.032C129.382 204.032 128.973 204.237 128.614 204.698C128.256 205.159 128.051 205.671 128.051 206.285C128.051 206.746 128.051 207.053 128.154 207.258H129.178L129.997 208.435L128.563 208.384L128.41 216.781L126.925 215.808L127.027 208.384H125.696L124.877 207.155Z" fill="white"/>
<path id="XMLID_75_" d="M137.011 206.746L137.933 207.821L136.499 207.923L137.062 216.32L135.475 215.45L135.219 211.251L132.25 211.456C131.994 211.456 131.789 211.61 131.584 211.866C131.43 212.122 131.328 212.429 131.379 212.736C131.43 213.248 131.635 213.811 131.994 214.323C132.352 214.886 132.864 215.398 133.53 215.859L132.966 216.371C132.045 215.552 131.277 214.733 130.765 214.016C130.253 213.248 129.946 212.634 129.894 212.07C129.843 211.507 129.997 211.046 130.304 210.637C130.611 210.227 131.021 209.971 131.482 209.971L135.117 209.715L135.014 207.974L129.024 208.384L128.102 207.309L137.011 206.746Z" fill="white"/>
<path id="XMLID_76_" d="M142.95 211.61C143.155 211.763 143.411 211.815 143.667 211.763C144.077 211.661 144.435 211.507 144.794 211.2C145.152 210.893 145.459 210.534 145.664 210.074C145.459 209.818 145.203 209.613 144.896 209.511C144.589 209.408 144.333 209.357 144.077 209.408C143.565 209.51 143.206 209.715 142.899 210.023C142.592 210.33 142.49 210.637 142.541 210.995C142.592 211.303 142.746 211.507 142.95 211.61ZM149.862 204.391L150.938 205.363L146.432 206.285L146.944 208.794C147.098 208.538 147.251 208.333 147.456 208.179C147.661 208.026 147.917 207.923 148.224 207.872C148.736 207.77 149.35 208.026 150.016 208.691C150.682 209.357 151.091 210.023 151.245 210.791C151.296 211.149 151.296 211.507 151.245 211.917C151.194 212.326 151.04 212.787 150.835 213.197L149.402 212.327C149.709 211.866 149.914 211.456 150.016 211.047C150.118 210.637 150.17 210.278 150.118 209.92C150.067 209.613 149.914 209.357 149.658 209.203C149.402 209.05 149.146 208.947 148.838 209.05C148.582 209.101 148.326 209.255 148.019 209.511C147.763 209.767 147.507 210.125 147.251 210.535L148.07 214.579L146.381 213.965L145.971 211.917C145.818 212.173 145.613 212.378 145.357 212.531C145.101 212.685 144.845 212.838 144.538 212.89C143.974 212.992 143.36 212.787 142.643 212.275C141.926 211.763 141.517 211.149 141.414 210.535C141.312 210.074 141.414 209.664 141.722 209.306C142.029 208.896 142.438 208.691 142.95 208.589C143.36 208.486 143.77 208.538 144.23 208.743C144.691 208.896 145.101 209.203 145.51 209.562L144.947 206.746L140.237 207.719L139.162 206.746L149.862 204.391Z" fill="white"/>
<path id="XMLID_80_" d="M154.01 207.872L156.723 206.95L155.546 203.52L152.832 204.442L154.01 207.872ZM157.184 201.728L158.362 202.547L157.03 203.008L159.744 210.944L158.003 210.534L157.286 208.384L154.573 209.306L154.88 210.227C154.931 210.432 154.931 210.637 154.88 210.79C154.829 210.944 154.726 211.098 154.573 211.149C154.112 211.302 153.498 211.2 152.73 210.79C151.962 210.381 151.501 209.92 151.347 209.459C151.296 209.306 151.296 209.152 151.398 208.998C151.501 208.845 151.603 208.742 151.808 208.691L152.627 208.435L151.45 205.005L149.555 205.67L148.378 204.851L157.184 201.728Z" fill="white"/>
<path id="XMLID_83_" d="M152.934 198.758C153.139 198.298 153.498 197.99 153.958 197.837C154.419 197.632 154.931 197.581 155.443 197.683C155.955 197.786 156.365 197.99 156.774 198.349L156.621 198.707C156.365 198.554 156.109 198.502 155.904 198.451C155.648 198.4 155.443 198.451 155.238 198.554C154.829 198.707 154.522 199.014 154.368 199.424C154.214 199.834 154.163 200.243 154.368 200.653C154.47 200.858 154.624 201.114 154.88 201.318C155.136 201.523 155.443 201.728 155.802 201.882L155.546 202.291C154.931 202.086 154.419 201.779 153.958 201.421C153.498 201.011 153.19 200.602 152.986 200.09C152.678 199.629 152.73 199.168 152.934 198.758Z" fill="white"/>
<path id="XMLID_84_" d="M165.734 197.786L167.014 198.451L165.734 199.066L169.318 206.643L167.526 206.438L165.786 202.803L163.379 203.93C163.891 204.083 164.403 204.288 164.762 204.595C165.171 204.902 165.478 205.21 165.632 205.619C165.837 206.029 165.837 206.49 165.683 206.95C165.478 207.411 165.171 207.718 164.762 207.974C163.994 208.333 163.072 208.23 161.946 207.718C160.819 207.206 159.744 206.336 158.72 205.107L159.13 204.698C159.846 205.568 160.614 206.131 161.434 206.541C162.253 206.899 162.918 206.95 163.482 206.694C163.738 206.592 163.891 206.387 163.942 206.131C164.045 205.875 163.994 205.619 163.891 205.312C163.686 204.902 163.328 204.544 162.765 204.237C162.202 203.93 161.485 203.725 160.666 203.571L165.171 201.421L164.352 199.68L157.286 203.008L156.006 202.342L165.734 197.786Z" fill="white"/>
<path id="XMLID_85_" d="M168.397 196.096L169.728 196.659L168.499 197.376L172.698 204.646L170.906 204.595L167.168 198.144L165.99 198.81L164.659 198.246L168.397 196.096Z" fill="white"/>
<path id="XMLID_86_" d="M76.8 139.264C76.8 141.67 82.432 142.899 83.9168 143.309C90.2144 144.947 96.768 145.715 103.27 146.125C109.261 146.534 116.582 145.562 122.317 144.077C118.938 139.571 115.661 135.066 113.306 129.894C91.904 131.328 76.8 135.629 76.8 139.264ZM142.694 129.843C140.339 134.963 137.062 139.52 133.683 144.026C139.469 145.51 146.739 146.483 152.73 146.074C159.232 145.613 165.786 144.845 172.083 143.258C173.568 142.899 179.2 141.67 179.2 139.213C179.2 135.578 164.096 131.277 142.694 129.843Z" fill="white"/>
<path id="XMLID_89_" d="M76.8 139.264H76.544C76.544 139.981 76.9536 140.544 77.5168 141.056C78.3872 141.773 79.6672 142.336 80.896 142.746C82.1248 143.155 83.2512 143.411 83.8144 143.565C90.1632 145.203 96.7168 145.971 103.219 146.432C104.192 146.483 105.165 146.534 106.138 146.534C111.514 146.534 117.453 145.613 122.368 144.384L122.726 144.282L122.522 144.026C119.142 139.52 115.866 135.014 113.562 129.894L113.51 129.741H113.357C102.656 130.458 93.4912 131.891 87.04 133.581C83.8144 134.451 81.2032 135.373 79.4624 136.294C78.592 136.755 77.8752 137.267 77.4144 137.728C76.9536 138.24 76.6464 138.752 76.6464 139.264H76.8H77.056C77.056 138.906 77.2608 138.496 77.6704 138.035C78.4384 137.267 79.872 136.448 81.92 135.629C88.0128 133.222 99.328 131.072 113.357 130.15V129.894L113.152 129.997C115.507 135.168 118.784 139.674 122.163 144.179L122.368 144.026L122.317 143.821C117.504 145.101 111.565 145.971 106.24 145.971C105.267 145.971 104.294 145.92 103.322 145.869C96.8704 145.408 90.3168 144.64 84.0192 143.053C83.3024 142.848 81.5104 142.438 79.9232 141.824C79.1552 141.517 78.3872 141.107 77.8752 140.698C77.3632 140.237 77.056 139.776 77.056 139.264H76.8ZM142.694 129.843L142.49 129.741C140.134 134.861 136.909 139.366 133.53 143.872L133.325 144.128L133.683 144.23C138.547 145.51 144.538 146.381 149.914 146.381C150.938 146.381 151.91 146.33 152.832 146.278C159.334 145.818 165.888 145.05 172.237 143.411C172.954 143.206 174.746 142.797 176.384 142.131C177.203 141.773 177.971 141.414 178.534 140.902C179.098 140.442 179.507 139.827 179.507 139.11C179.507 138.547 179.251 138.035 178.739 137.574C177.92 136.704 176.384 135.885 174.336 135.066C168.141 132.659 156.826 130.458 142.746 129.536H142.592L142.541 129.69L142.694 129.843V130.099C153.395 130.816 162.509 132.25 168.909 133.939C172.134 134.81 174.694 135.731 176.384 136.653C177.254 137.114 177.92 137.574 178.33 138.035C178.739 138.496 178.944 138.906 178.944 139.264C178.944 139.776 178.637 140.237 178.125 140.698C177.357 141.363 176.077 141.875 174.899 142.285C173.722 142.694 172.595 142.95 172.032 143.104C165.734 144.691 159.181 145.51 152.73 145.92C151.808 145.971 150.835 146.022 149.811 146.022C144.486 146.022 138.547 145.152 133.734 143.872L133.683 144.077L133.888 144.23C137.267 139.725 140.544 135.168 142.899 130.048L142.694 129.843Z" fill="#1F1917"/>
<path id="XMLID_92_" d="M122.317 144.077C118.938 139.571 115.712 135.015 113.357 129.895C113.203 129.485 112.998 129.127 112.845 128.717C111.667 125.901 110.746 123.085 110.182 120.32C107.725 107.879 111.667 95.2833 118.528 84.9409C122.522 78.8993 126.822 72.7553 127.898 65.4337H128.154C129.229 72.7553 133.53 78.8993 137.523 84.9409C144.384 95.2833 148.326 107.879 145.869 120.32C145.306 123.085 144.384 125.952 143.206 128.717C143.053 129.127 142.848 129.485 142.694 129.895C140.339 135.015 137.062 139.571 133.683 144.077C131.584 143.514 129.638 142.899 128.102 142.234C126.566 142.899 124.621 143.514 122.522 144.077H122.317Z" fill="white"/>
<path id="XMLID_93_" d="M122.317 144.077L122.522 143.923C119.142 139.469 115.917 134.861 113.613 129.792C113.408 129.382 113.254 129.024 113.101 128.614C111.923 125.85 111.002 122.982 110.438 120.218C109.926 117.709 109.722 115.149 109.722 112.64C109.722 102.81 113.306 93.184 118.784 84.992C122.778 78.9504 127.13 72.8064 128.205 65.3824L127.949 65.3312V65.5872H128.205V65.3312L127.949 65.3824C129.075 72.8064 133.376 78.9504 137.37 84.992C142.848 93.184 146.432 102.81 146.432 112.64C146.432 115.149 146.176 117.658 145.715 120.218C145.152 122.982 144.23 125.798 143.053 128.614C142.899 129.024 142.694 129.382 142.541 129.792C140.186 134.912 136.96 139.418 133.581 143.923L133.786 144.077L133.837 143.872C131.738 143.309 129.843 142.694 128.307 142.08L128.205 142.029L128.102 142.08C126.566 142.746 124.672 143.36 122.522 143.872L122.573 144.077L122.522 143.821H122.368H122.163V144.026H122.317L122.522 143.872L122.317 144.077L122.368 144.333H122.522C124.672 143.77 126.566 143.155 128.154 142.49L128.051 142.285L127.949 142.49C129.536 143.155 131.43 143.77 133.581 144.333L133.734 144.384L133.837 144.282C137.216 139.776 140.493 135.219 142.848 130.099C143.002 129.69 143.206 129.331 143.36 128.922C144.538 126.106 145.51 123.238 146.022 120.474C146.534 117.914 146.79 115.354 146.79 112.845C146.79 102.912 143.155 93.184 137.677 84.9408C133.632 78.8992 129.382 72.7552 128.307 65.4848L128.256 65.28H127.795H127.59L127.539 65.4848C126.464 72.7552 122.214 78.8992 118.17 84.9408C112.691 93.184 109.056 102.912 109.056 112.845C109.056 115.405 109.312 117.965 109.824 120.525C110.387 123.29 111.309 126.208 112.486 128.973C112.64 129.382 112.845 129.792 112.998 130.15C115.354 135.27 118.63 139.878 121.958 144.384L122.368 144.947V144.23H122.317V144.077Z" fill="#1F1917"/>
<path id="XMLID_94_" d="M122.317 144.077C116.531 145.562 109.261 146.534 103.27 146.125C96.768 145.664 90.2144 144.896 83.9168 143.309C82.5856 142.95 77.824 141.926 76.9536 139.93C81.8688 157.85 102.861 171.367 128.051 171.367C153.242 171.367 174.234 157.901 179.098 139.93H179.046C178.125 141.875 173.414 142.899 172.083 143.258C165.786 144.896 159.232 145.664 152.73 146.074C146.739 146.483 139.418 145.51 133.683 144.026C131.584 143.462 129.638 142.848 128.102 142.183C126.566 142.848 124.621 143.462 122.522 144.026L122.317 144.077Z" fill="#781F19"/>
<path id="XMLID_95_" d="M122.266 143.872C117.453 145.152 111.514 146.023 106.189 146.023C105.216 146.023 104.243 145.971 103.27 145.92C96.8192 145.459 90.2656 144.691 83.968 143.104C83.3024 142.951 81.7664 142.592 80.3328 142.029C79.616 141.773 78.8992 141.415 78.336 141.056C77.7728 140.698 77.3632 140.288 77.1584 139.827L77.1072 139.674H76.9536H76.6464L76.7488 139.981C81.664 158.055 102.81 171.571 128.051 171.571C153.293 171.571 174.387 158.055 179.354 139.981L179.456 139.674H179.098H178.944L178.893 139.827C178.688 140.237 178.227 140.647 177.664 141.005C176.794 141.568 175.667 141.978 174.592 142.336C173.517 142.643 172.595 142.899 172.083 143.002C165.786 144.589 159.232 145.408 152.781 145.818C151.859 145.869 150.886 145.92 149.862 145.92C144.538 145.92 138.598 145.05 133.786 143.77C131.686 143.207 129.792 142.592 128.256 141.978L128.154 141.927L128.051 141.978C126.515 142.643 124.621 143.258 122.47 143.77L122.522 143.975L122.47 143.719L122.266 143.872L122.368 144.282H122.522C124.672 143.719 126.566 143.104 128.154 142.439L128.051 142.234L127.949 142.439C129.536 143.104 131.43 143.719 133.581 144.282C138.445 145.562 144.435 146.432 149.811 146.432C150.835 146.432 151.808 146.381 152.73 146.33C159.232 145.869 165.786 145.101 172.134 143.463C172.8 143.309 174.285 142.951 175.77 142.387C176.486 142.131 177.254 141.773 177.869 141.415C178.483 141.005 178.995 140.595 179.251 140.032L179.046 139.93V140.186H179.098V139.93L178.893 139.879C174.029 157.696 153.139 171.111 128.051 171.111C102.963 171.111 82.0224 157.645 77.2096 139.879L77.0048 139.93L76.8 140.032C77.056 140.595 77.568 141.056 78.1824 141.466C79.104 142.08 80.2816 142.49 81.3568 142.848C82.432 143.207 83.4048 143.411 83.9168 143.565C90.2656 145.203 96.8192 145.971 103.322 146.432C104.294 146.483 105.267 146.535 106.24 146.535C111.616 146.535 117.555 145.613 122.47 144.384L122.266 143.872Z" fill="#1F1917"/>
<path id="XMLID_96_" d="M128.922 129.024C128.512 129.434 128.154 129.895 128.154 130.253H128.102C128.102 129.843 127.693 129.383 127.283 128.973V142.336H127.744C127.846 142.285 128 142.234 128.102 142.183C128.205 142.234 128.307 142.285 128.461 142.336H128.973V129.024" fill="#BDA345"/>
<path id="XMLID_97_" d="M128.922 129.024L128.768 128.87C128.563 129.075 128.358 129.28 128.205 129.536C128.051 129.741 127.949 129.997 127.949 130.253H128.205V129.997H128.154V130.253H128.41C128.41 129.997 128.256 129.741 128.102 129.485C127.949 129.229 127.744 129.024 127.488 128.768L127.078 128.358V142.541H127.795H127.846H127.898C128 142.49 128.102 142.438 128.256 142.387L128.154 142.182L128.051 142.387C128.154 142.438 128.307 142.49 128.41 142.541H128.461H129.024H129.28V128.41L128.87 128.819L128.922 129.024H128.666V142.131H128.41V142.387L128.512 142.182C128.41 142.131 128.256 142.08 128.154 142.029L128.051 141.978L127.949 142.029C127.846 142.08 127.744 142.131 127.59 142.182L127.693 142.387V142.131H127.488V128.973H127.232L127.078 129.126C127.283 129.331 127.488 129.536 127.642 129.741C127.795 129.946 127.846 130.15 127.846 130.253V130.458H128.102H128.307V130.253C128.307 130.15 128.358 129.946 128.512 129.792C128.666 129.587 128.819 129.382 129.024 129.178L128.922 129.024Z" fill="#1F1917"/>
<path id="XMLID_98_" d="M128.307 119.45H127.949C126.106 119.45 124.57 120.781 124.16 122.624C123.648 125.031 124.723 126.567 126.362 128.103C126.771 128.512 128.102 129.536 128.102 130.253H128.154C128.205 129.536 129.485 128.512 129.894 128.103C131.533 126.567 132.608 125.031 132.096 122.624C131.686 120.73 130.15 119.45 128.307 119.45Z" fill="#D9261C"/>
<path id="XMLID_99_" d="M128.307 119.194H127.949C126.003 119.194 124.365 120.627 123.904 122.573C123.802 122.982 123.75 123.392 123.75 123.802C123.75 124.723 124.006 125.542 124.467 126.259C124.877 126.976 125.491 127.642 126.208 128.307C126.413 128.512 126.874 128.87 127.232 129.28C127.437 129.485 127.59 129.69 127.693 129.843C127.795 130.048 127.898 130.202 127.898 130.304C127.898 130.406 128 130.509 128.154 130.509H128.205C128.307 130.509 128.41 130.406 128.461 130.304C128.461 130.202 128.512 130.048 128.666 129.843C128.819 129.587 129.126 129.28 129.434 128.973C129.741 128.717 129.997 128.461 130.15 128.307C130.816 127.642 131.43 127.027 131.891 126.259C132.301 125.542 132.608 124.723 132.608 123.802C132.608 123.392 132.557 122.982 132.454 122.573C131.891 120.627 130.304 119.194 128.307 119.194H127.949V119.654H128.307C130.048 119.654 131.482 120.883 131.891 122.675C131.994 123.085 132.045 123.443 132.045 123.802C132.045 124.621 131.789 125.338 131.43 126.003C131.021 126.669 130.458 127.283 129.792 127.949C129.587 128.154 129.126 128.512 128.768 128.922C128.563 129.126 128.41 129.331 128.256 129.587C128.102 129.792 128 130.048 128 130.304H128.256V130.048H128.205V130.304H128.461C128.461 130.048 128.358 129.843 128.205 129.587C128 129.28 127.693 128.922 127.386 128.666C127.078 128.358 126.822 128.154 126.669 128C126.003 127.386 125.44 126.72 125.03 126.054C124.621 125.389 124.416 124.672 124.416 123.853C124.416 123.494 124.467 123.136 124.57 122.726C124.979 120.986 126.413 119.706 128.154 119.706H128.512V119.194H128.307Z" fill="#1F1917"/>
<path id="XMLID_100_" d="M124.16 122.624C124.416 121.395 125.235 120.371 126.259 119.859L126.413 119.654C126.413 119.654 121.856 115.917 116.122 120.422C116.378 120.32 118.63 122.214 118.886 122.419C120.422 123.494 122.01 123.955 123.904 123.597L124.058 123.341C124.058 123.085 124.109 122.829 124.16 122.624Z" fill="#D9261C"/>
<path id="XMLID_101_" d="M124.16 122.624L124.365 122.675C124.621 121.498 125.389 120.576 126.362 120.064L126.464 119.962L126.618 119.757C126.669 119.654 126.669 119.501 126.566 119.45C126.566 119.45 124.723 117.965 121.907 117.965C120.218 117.965 118.17 118.528 115.968 120.218C115.866 120.269 115.866 120.422 115.917 120.525C115.968 120.627 116.122 120.678 116.224 120.627L116.173 120.474V120.627H116.224L116.173 120.474V120.627C116.173 120.627 116.275 120.678 116.326 120.73C116.634 120.934 117.197 121.344 117.709 121.754C117.965 121.958 118.17 122.163 118.374 122.317C118.579 122.47 118.682 122.573 118.784 122.624C120.013 123.494 121.293 123.955 122.726 123.955C123.136 123.955 123.546 123.904 124.006 123.853C124.058 123.853 124.109 123.802 124.16 123.75L124.314 123.494L124.365 123.392C124.365 123.187 124.416 122.931 124.467 122.726L124.16 122.624L124.006 122.778C124.058 122.829 124.16 122.88 124.262 122.829C124.365 122.829 124.416 122.726 124.416 122.675L124.16 122.624L124.314 122.47C124.262 122.419 124.16 122.368 124.109 122.419C124.006 122.419 123.955 122.522 123.955 122.573C123.904 122.829 123.853 123.085 123.853 123.29H124.109L123.904 123.187L123.75 123.443L123.955 123.546L123.904 123.341C123.494 123.392 123.085 123.443 122.726 123.443C121.395 123.443 120.218 123.034 119.091 122.163C119.04 122.112 118.835 121.958 118.63 121.754C118.272 121.446 117.76 121.037 117.35 120.73C117.146 120.576 116.941 120.422 116.736 120.32C116.634 120.269 116.582 120.218 116.48 120.166C116.378 120.115 116.326 120.115 116.224 120.115L116.07 120.166L116.173 120.371L116.326 120.576C118.426 118.938 120.371 118.426 121.958 118.426C123.29 118.426 124.365 118.784 125.133 119.142C125.491 119.296 125.798 119.501 126.003 119.603C126.106 119.654 126.157 119.706 126.208 119.757L126.259 119.808L126.413 119.603L126.208 119.501L126.054 119.706L126.259 119.808L126.157 119.603C125.03 120.166 124.211 121.242 123.904 122.522L124.16 122.624Z" fill="#1F1917"/>
<path id="XMLID_102_" d="M129.587 119.552L129.638 119.654C130.867 120.115 131.789 121.19 132.096 122.624C132.147 122.982 132.198 123.29 132.198 123.597C133.99 123.853 135.526 123.443 137.011 122.368C137.318 122.163 139.52 120.218 139.776 120.371C134.093 115.917 129.587 119.552 129.587 119.552Z" fill="#D9261C"/>
<path id="XMLID_103_" d="M129.587 119.552L129.382 119.654L129.434 119.757L129.536 119.859C130.662 120.269 131.584 121.293 131.891 122.624C131.942 122.931 131.994 123.238 131.994 123.546C131.994 123.648 132.096 123.75 132.198 123.75C132.557 123.802 132.915 123.853 133.274 123.853C134.707 123.853 135.987 123.392 137.216 122.522C137.318 122.47 137.472 122.317 137.728 122.112C138.086 121.805 138.598 121.395 139.008 121.088C139.213 120.934 139.418 120.781 139.571 120.678C139.674 120.627 139.725 120.576 139.776 120.576H139.827V120.422L139.776 120.576H139.827V120.422L139.776 120.576C139.878 120.627 140.032 120.576 140.083 120.474C140.134 120.371 140.134 120.218 140.032 120.166C137.83 118.477 135.782 117.914 134.093 117.914C131.328 117.914 129.485 119.347 129.485 119.398L129.587 119.552V119.296C129.485 119.296 129.434 119.347 129.382 119.398C129.331 119.45 129.331 119.552 129.382 119.654L129.587 119.552V119.808L129.741 119.757C129.946 119.603 131.584 118.374 134.042 118.374C135.629 118.374 137.574 118.886 139.674 120.525L139.827 120.32L139.93 120.115L139.776 120.064C139.622 120.064 139.571 120.115 139.469 120.166C139.11 120.371 138.547 120.781 138.035 121.242C137.779 121.446 137.523 121.651 137.318 121.805C137.114 121.958 136.96 122.112 136.909 122.112C135.782 122.931 134.605 123.341 133.274 123.341C132.966 123.341 132.608 123.29 132.301 123.238L132.25 123.494H132.506C132.506 123.187 132.454 122.829 132.352 122.522C132.045 121.037 131.021 119.91 129.741 119.398L129.638 119.603L129.843 119.501L129.792 119.398L129.587 119.552Z" fill="#1F1917"/>
<path id="XMLID_104_" d="M127.898 93.2865C127.898 93.2865 116.122 111.258 126.464 119.245H129.331C139.674 111.309 127.898 93.2865 127.898 93.2865Z" fill="#D9261C"/>
<path id="XMLID_105_" d="M127.693 93.184C127.693 93.184 126.259 95.3856 124.826 98.56C123.392 101.734 121.958 105.933 121.958 109.978C121.958 113.51 123.085 116.992 126.31 119.45L126.464 119.501H129.331L129.485 119.45C132.71 116.992 133.837 113.51 133.837 109.978C133.837 105.933 132.403 101.734 130.97 98.56C129.536 95.3856 128.102 93.184 128.102 93.184C128.051 93.0816 127.898 93.0304 127.795 93.1328C127.693 93.184 127.642 93.3376 127.744 93.44C127.744 93.44 127.846 93.5936 128 93.7984C129.075 95.5392 133.427 103.066 133.427 109.926C133.427 113.357 132.352 116.634 129.28 119.04L129.434 119.245V118.989H126.464V119.245L126.618 119.04C123.546 116.685 122.47 113.408 122.47 109.926C122.47 105.984 123.904 101.837 125.286 98.7136C126.003 97.1264 126.72 95.7952 127.232 94.8736C127.488 94.4128 127.693 94.0544 127.898 93.7984C128.051 93.5424 128.154 93.44 128.154 93.44C128.205 93.3376 128.205 93.184 128.102 93.1328C127.898 93.0304 127.795 93.0816 127.693 93.184Z" fill="#1F1917"/>
<path id="XMLID_106_" d="M125.338 97.9969L120.371 93.6449C120.832 94.0545 120.627 96.5633 120.627 97.1265C120.627 98.5089 120.576 99.8913 120.422 101.274C120.218 103.117 119.859 104.858 119.552 106.65C119.091 109.466 119.45 112.487 121.037 114.944C122.214 116.736 124.365 118.323 126.31 119.143C119.501 113.766 122.624 103.885 125.338 97.9969Z" fill="#D9261C"/>
<path id="XMLID_107_" d="M125.338 97.9968L125.491 97.8432L120.525 93.4912C120.422 93.3888 120.269 93.44 120.218 93.4912C120.115 93.5936 120.166 93.7472 120.218 93.7984C120.218 93.7984 120.269 93.8496 120.32 93.952C120.422 94.2592 120.474 94.9248 120.474 95.5392C120.474 96.1536 120.422 96.768 120.422 97.0752V97.1264C120.422 97.28 120.422 97.4336 120.422 97.5872C120.422 98.816 120.371 100.045 120.218 101.274C120.064 103.066 119.654 104.858 119.347 106.65C119.245 107.418 119.142 108.186 119.142 108.954C119.142 111.104 119.654 113.254 120.832 115.098C122.01 116.941 124.211 118.528 126.208 119.398C126.31 119.45 126.464 119.398 126.515 119.296C126.566 119.194 126.566 119.091 126.464 118.989C123.443 116.634 122.419 113.357 122.419 109.978C122.419 105.779 124.006 101.376 125.542 98.1504C125.594 98.048 125.542 97.9456 125.491 97.8944L125.338 97.9968L125.133 97.8944C123.597 101.12 122.01 105.626 122.01 109.926C122.01 113.408 123.085 116.838 126.259 119.296L126.413 119.091L126.515 118.886C124.57 118.067 122.47 116.531 121.344 114.79C120.218 112.998 119.757 111.002 119.757 108.902C119.757 108.134 119.808 107.418 119.91 106.65C120.218 104.858 120.576 103.066 120.781 101.274C120.883 100.045 120.986 98.816 120.986 97.536C120.986 97.3824 120.986 97.2288 120.986 97.0752V97.024C120.986 96.768 121.037 96.1024 121.037 95.488C121.037 95.0784 121.037 94.6176 120.986 94.2592C120.986 94.0544 120.934 93.9008 120.883 93.7472C120.832 93.5936 120.781 93.4912 120.678 93.3888C120.627 93.3376 120.576 93.3376 120.525 93.3376C120.474 93.3376 120.422 93.3888 120.371 93.44C120.32 93.4912 120.32 93.5424 120.32 93.5936C120.32 93.6448 120.371 93.696 120.422 93.7472L125.389 98.0992L125.338 97.9968Z" fill="#1F1917"/>
<path id="XMLID_108_" d="M136.243 106.701C135.936 104.909 135.578 103.117 135.373 101.325C135.219 99.9424 135.168 98.56 135.168 97.1776C135.168 96.6144 135.014 94.0544 135.424 93.696L130.458 98.0992C133.222 103.987 136.294 113.869 129.382 119.245C131.379 118.426 133.632 116.838 134.758 114.995C136.346 112.486 136.704 109.517 136.243 106.701Z" fill="#D9261C"/>
<path id="XMLID_109_" d="M136.243 106.701L136.499 106.65C136.192 104.858 135.834 103.066 135.629 101.274C135.526 100.045 135.424 98.8673 135.424 97.6385C135.424 97.4849 135.424 97.3313 135.424 97.1777V97.1265C135.424 96.8193 135.373 96.2049 135.373 95.5905C135.373 95.1809 135.373 94.7713 135.424 94.4129C135.424 94.2593 135.475 94.1057 135.526 94.0033C135.578 93.9009 135.578 93.8497 135.629 93.8497C135.731 93.7473 135.731 93.5937 135.629 93.5425C135.526 93.4401 135.373 93.4401 135.322 93.5425L130.355 97.9457C130.253 97.9969 130.253 98.1505 130.304 98.2017C131.789 101.427 133.376 105.831 133.376 109.978C133.376 113.408 132.301 116.685 129.28 119.04C129.178 119.091 129.178 119.245 129.229 119.347C129.28 119.45 129.434 119.501 129.536 119.45C131.584 118.631 133.837 116.992 135.066 115.098C136.243 113.255 136.755 111.104 136.755 108.954C136.755 108.186 136.704 107.418 136.55 106.65L136.243 106.701L135.987 106.752C136.09 107.469 136.141 108.237 136.141 109.005C136.141 111.104 135.68 113.101 134.554 114.893C133.427 116.685 131.226 118.272 129.28 119.04L129.382 119.245L129.536 119.45C132.71 116.992 133.837 113.562 133.837 110.029C133.837 105.728 132.198 101.274 130.714 98.0481L130.509 98.1505L130.662 98.3041L135.629 93.9009C135.68 93.8497 135.68 93.7985 135.731 93.7473C135.731 93.6961 135.731 93.6449 135.68 93.5937C135.629 93.5425 135.578 93.5425 135.526 93.4913C135.475 93.4913 135.424 93.4913 135.373 93.5425C135.27 93.6449 135.219 93.7985 135.168 93.9009C135.014 94.3105 135.014 94.9761 135.014 95.5905C135.014 96.2561 135.066 96.8705 135.066 97.1265V97.1777C135.066 97.3313 135.066 97.4849 135.066 97.6897C135.066 98.9185 135.117 100.147 135.27 101.376C135.475 103.219 135.834 104.96 136.141 106.752L136.243 106.701Z" fill="#1F1917"/>
<path id="XMLID_110_" d="M130.099 118.886L130.355 119.091C131.533 118.477 133.888 117.606 136.858 118.682L137.062 118.63C137.062 118.63 138.086 115.814 139.827 115.814C139.827 115.814 137.523 114.586 134.451 115.405C133.376 116.838 131.738 118.118 130.099 118.886Z" fill="#D9261C"/>
<path id="XMLID_111_" d="M130.099 118.886L129.946 119.091L130.202 119.296C130.253 119.347 130.355 119.347 130.458 119.296C131.174 118.886 132.454 118.374 134.042 118.374C134.861 118.374 135.782 118.528 136.806 118.886H136.96L137.165 118.835C137.216 118.835 137.267 118.784 137.318 118.682C137.318 118.682 137.318 118.63 137.37 118.579C137.472 118.323 137.779 117.658 138.189 117.094C138.394 116.787 138.65 116.531 138.957 116.326C139.264 116.122 139.52 116.019 139.878 116.019C139.981 116.019 140.083 115.968 140.083 115.866C140.134 115.763 140.083 115.661 139.981 115.61C139.981 115.61 138.65 114.893 136.653 114.893C135.987 114.893 135.219 114.995 134.451 115.2L134.349 115.302C133.325 116.685 131.686 117.914 130.099 118.682V118.886L129.946 119.04C129.997 119.091 130.099 119.142 130.202 119.091C131.84 118.272 133.53 117.043 134.656 115.558L134.451 115.405L134.502 115.61C135.27 115.405 135.936 115.354 136.602 115.354C137.523 115.354 138.342 115.507 138.906 115.712C139.162 115.814 139.418 115.866 139.52 115.917C139.571 115.968 139.674 115.968 139.674 115.968H139.725L139.827 115.763V115.507C139.315 115.507 138.906 115.712 138.496 115.968C137.37 116.838 136.806 118.426 136.806 118.426L137.011 118.528L136.96 118.323L136.755 118.374L136.806 118.579L136.909 118.374C135.834 117.965 134.861 117.862 133.99 117.862C132.301 117.862 130.97 118.374 130.202 118.835L130.304 119.04L130.458 118.835L130.202 118.63C130.099 118.579 129.946 118.579 129.894 118.682C129.792 118.784 129.843 118.938 129.894 118.989L130.099 118.886Z" fill="#1F1917"/>
<path id="XMLID_112_" d="M125.491 119.04L125.645 118.989L125.594 118.784C124.006 118.016 122.419 116.787 121.395 115.405C118.323 114.586 115.968 115.814 115.968 115.814C117.709 115.814 118.733 118.63 118.733 118.63L118.938 118.733C121.907 117.606 124.262 118.426 125.491 119.04Z" fill="#D9261C"/>
<path id="XMLID_113_" d="M125.491 119.04L125.594 119.245L125.747 119.194C125.85 119.142 125.901 119.04 125.85 118.886L125.798 118.682L125.696 118.528C124.16 117.76 122.573 116.582 121.6 115.2C121.549 115.149 121.498 115.098 121.446 115.098V115.354L121.498 115.149C120.678 114.944 119.962 114.842 119.245 114.842C117.248 114.842 115.917 115.558 115.917 115.558C115.814 115.61 115.763 115.712 115.814 115.814C115.866 115.917 115.917 115.968 116.019 115.968C116.378 115.968 116.736 116.122 117.043 116.378C117.504 116.736 117.914 117.299 118.17 117.76C118.323 118.016 118.426 118.221 118.477 118.374C118.528 118.477 118.528 118.528 118.528 118.579V118.63C118.528 118.682 118.579 118.733 118.63 118.784L118.835 118.886C118.886 118.938 118.938 118.938 119.04 118.886C120.064 118.477 121.037 118.374 121.907 118.374C123.443 118.374 124.672 118.835 125.389 119.245L125.491 119.04V119.296C125.594 119.296 125.696 119.194 125.696 119.091C125.696 118.989 125.645 118.886 125.594 118.835C124.774 118.426 123.494 117.914 121.856 117.914C120.934 117.914 119.91 118.067 118.835 118.477L118.938 118.682L119.04 118.477L118.835 118.374L118.733 118.579L118.938 118.477C118.938 118.477 118.682 117.76 118.17 117.043C117.914 116.685 117.606 116.326 117.248 116.019C116.89 115.712 116.429 115.558 115.917 115.558V115.814L116.019 116.019C116.173 115.968 117.35 115.354 119.142 115.354C119.757 115.354 120.474 115.456 121.242 115.661H121.293V115.405L121.088 115.558C122.266 116.992 123.904 118.221 125.491 119.04L125.594 118.784L125.389 118.886L125.44 119.091L125.645 118.989L125.542 118.784L125.389 118.835C125.286 118.886 125.235 118.989 125.235 119.091C125.235 119.194 125.338 119.296 125.491 119.296V119.04Z" fill="#1F1917"/>
<path id="XMLID_114_" d="M125.286 98.0993C125.798 96.9729 126.31 96.0513 126.72 95.2833L124.672 92.4673L123.085 95.9489V96.1025L125.286 98.0481V98.0993Z" fill="#D9261C"/>
<path id="XMLID_115_" d="M125.286 98.0993L125.491 98.2017C126.003 97.1265 126.515 96.1537 126.925 95.3857L126.976 95.2321L124.621 91.9553L122.829 95.8465V96.0513V96.1537L125.133 98.1505L125.286 97.9969L125.082 97.8945L125.03 97.9457L124.928 98.3041H125.286H125.44L125.491 98.1505L125.286 98.0993L125.491 98.2017L125.542 98.1505L125.594 97.9969L123.341 96.0001V95.9489H123.085L123.29 96.0513L124.723 92.9281L126.515 95.4369L126.72 95.2833L126.515 95.1809C126.106 95.9489 125.594 96.9217 125.082 98.0481L125.286 98.0993Z" fill="#1F1917"/>
<path id="XMLID_116_" d="M130.458 98.048L132.915 95.8976L131.328 92.416L129.28 95.2832V95.6416C129.69 96.3584 130.099 97.2288 130.56 98.1504L130.458 98.048Z" fill="#D9261C"/>
<path id="XMLID_117_" d="M130.458 98.0481L130.611 98.2017L133.171 95.9489L131.328 91.9553L129.024 95.2321V95.6417V95.6929L129.075 95.7441C129.434 96.4609 129.894 97.2801 130.355 98.2529L130.765 98.0481L130.714 97.9457L130.458 98.0481H130.202V98.0993L130.253 98.2529L130.662 98.0481C130.202 97.0753 129.792 96.2561 129.382 95.5393L129.178 95.6417H129.434V95.3857L131.226 92.9281L132.557 95.8977L130.15 97.9969V98.0993H130.458V98.0481Z" fill="#1F1917"/>
</g>
</g>
</svg>
