<svg width="600" height="600" viewBox="0 0 600 600" fill="none" xmlns="http://www.w3.org/2000/svg">
<path fill-rule="evenodd" clip-rule="evenodd" d="M20.6199 109.527L20.4045 104.784C23.2037 101.119 31.1706 99.3941 44.3053 99.3941L72.2971 99.6097L88.6616 99.8253L95.9825 99.6097C122.252 99.6097 138.186 100.041 143.784 100.903C143.999 103.275 143.999 105.215 143.999 106.293C143.999 108.018 143.784 110.82 143.353 114.27L114.5 115.563C112.993 115.779 111.27 116.21 108.687 117.072C107.825 119.013 107.395 120.522 107.395 121.6C107.395 122.893 108.041 124.834 109.117 127.421C110.624 130.87 112.347 134.535 113.639 138.416L132.803 191.882L178.235 305.929C183.403 319.942 187.064 328.781 188.786 332.877C194.385 345.597 201.49 363.491 210.318 386.344C213.333 394.32 220.654 411.352 232.066 437.654C232.712 439.379 233.788 441.966 235.726 445.631C244.77 430.971 258.12 405.1 275.776 368.234C289.557 339.992 298.17 320.373 301.615 309.809L299.246 303.773L247.138 185.414C240.248 170.539 234.865 158.897 231.205 150.273C223.238 131.948 217.424 121.6 213.764 119.013C210.103 116.426 199.337 114.485 181.465 113.623L175.006 112.114C173.283 110.389 172.637 108.233 172.637 105.862C173.068 104.137 173.929 102.628 175.436 101.766C181.896 101.55 186.418 101.55 189.002 101.55L208.165 102.197L217.855 101.981H234.434L249.292 101.766H265.01L293.433 98.963C295.155 98.963 297.954 98.963 301.615 99.1786L306.352 98.963C309.151 98.963 311.304 99.6097 312.812 100.903C314.319 102.197 314.965 103.706 314.965 105.215C314.965 106.724 314.534 108.233 313.673 109.958C310.443 111.252 304.629 112.114 296.447 112.976C284.604 114.485 277.714 115.779 275.776 116.857C273.838 118.15 272.977 119.66 272.977 121.6C272.977 125.48 280.729 145.746 296.447 182.612L327.453 252.678C336.928 234.137 349.847 204.817 365.996 164.718C372.886 148.117 376.332 135.829 376.332 128.068C376.332 123.756 374.609 120.091 371.164 116.641C368.58 114.27 362.766 112.545 353.507 111.898L347.048 111.036L341.665 108.664L341.449 106.293C341.449 104.999 341.88 103.275 342.957 101.119C344.895 99.6097 346.832 98.5318 348.34 98.3162C351.354 97.885 365.35 98.3162 390.327 99.8253H410.998L423.702 100.041L444.804 99.8253C446.311 100.041 448.895 100.472 452.125 101.334C453.632 103.059 454.493 104.568 454.493 105.862C454.493 108.018 453.632 109.958 451.91 111.252C450.187 112.761 446.311 113.839 440.282 114.917C424.994 117.504 413.367 121.6 405.831 126.99C400.878 130.87 396.141 136.26 392.265 143.374L370.303 192.529C365.135 207.404 360.828 218.615 357.383 226.161C355.876 230.904 353.292 236.94 349.632 244.701L337.358 273.59C339.512 278.764 343.387 287.388 348.555 299.03L379.777 371.468C381.284 374.702 385.375 383.757 392.265 398.417C399.156 413.077 404.969 426.874 409.706 439.379L414.228 424.719L414.874 423.209L433.392 374.917C439.852 360.257 446.311 344.519 452.771 328.134L476.026 269.279L511.123 169.245C514.784 157.819 517.583 146.608 519.951 135.829L520.813 131.086C521.458 128.93 521.674 127.205 521.674 126.343C521.674 123.54 520.167 120.953 517.367 118.582C514.568 116.21 504.448 112.976 487.438 109.096C485.715 108.449 484.208 107.587 482.701 106.293C482.055 103.922 481.839 101.981 481.839 100.472L482.055 98.3162C490.452 97.885 495.835 97.6694 498.204 97.6694L521.458 98.3162L547.728 98.1006H570.337L579.38 98.7474L579.595 101.766C579.595 103.275 579.38 105.215 578.949 108.233C564.308 113.839 555.264 117.935 551.819 120.306C548.374 122.678 545.575 125.265 543.637 128.283C541.699 131.086 538.038 138.847 532.871 151.351C532.225 152.645 525.98 170.754 513.922 205.895C511.338 211.069 508.539 218.184 505.74 226.807C504.879 229.179 503.156 233.491 500.572 239.743L495.835 251.816L492.605 260.655C479.255 297.521 464.614 335.896 448.895 376.211L416.166 467.19L403.247 501.684C400.232 502.115 397.864 502.331 396.356 502.331C395.065 502.331 393.127 502.331 390.543 502.115C387.959 494.569 382.145 480.556 373.102 459.644C349.847 406.609 329.176 362.629 310.658 327.703L306.998 333.74C296.662 353.358 284.389 379.229 269.963 411.568L245.631 459.644C235.942 480.125 228.19 494.138 222.161 502.115L208.381 502.331L159.502 382.247L118.807 287.172L83.2785 196.841C80.91 191.02 78.7568 185.414 77.0342 180.24C75.5269 176.36 74.235 172.479 73.1584 168.383C71.2205 162.131 65.4068 147.902 56.148 125.696C52.4875 119.875 46.6738 115.995 38.7069 114.485C30.5247 112.761 24.4957 111.252 20.6199 109.527Z" fill="#D82E2B"/>
</svg>
