<svg width="128" height="32" viewBox="0 0 128 32" fill="none" xmlns="http://www.w3.org/2000/svg">
<g id="ramu logo">
<path id="ramu (flattened)" fill-rule="evenodd" clip-rule="evenodd" d="M42.4951 0H42.3148C42.1357 0 41.9893 0.140903 41.9851 0.317378L41.9184 3.11624C41.9141 3.29867 42.063 3.44887 42.2481 3.44887H42.5622C42.7474 3.44887 42.8963 3.29864 42.892 3.11619L42.8248 0.317328C42.8206 0.140872 42.6742 0 42.4951 0ZM32.1637 30.9673H27.3535C27.1136 30.9673 26.954 30.7231 27.0532 30.5079L40.1243 2.14811C40.271 1.82985 40.7544 1.93291 40.7544 2.28246L40.7561 12.9601C40.7561 13.0071 40.7458 13.0535 40.7259 13.0961L32.4633 30.7782C32.4095 30.8935 32.2925 30.9673 32.1637 30.9673ZM42.2403 4.5864H42.5701C42.7523 4.5864 42.8999 4.73191 42.8999 4.91141V7.71027C42.8999 7.88977 42.7523 8.03528 42.5701 8.03528H42.2403C42.0582 8.03528 41.9105 7.88977 41.9105 7.71027V4.91141C41.9105 4.73191 42.0582 4.5864 42.2403 4.5864ZM42.5701 9.1728H42.2403C42.0582 9.1728 41.9105 9.31832 41.9105 9.49781V12.2967C41.9105 12.4762 42.0582 12.6217 42.2403 12.6217H42.5701C42.7523 12.6217 42.8999 12.4762 42.8999 12.2967V9.49781C42.8999 9.31832 42.7523 9.1728 42.5701 9.1728ZM42.2403 13.7592H42.5701C42.7523 13.7592 42.8999 13.9047 42.8999 14.0842V16.8831C42.8999 17.0626 42.7523 17.2081 42.5701 17.2081H42.2403C42.0582 17.2081 41.9105 17.0626 41.9105 16.8831V14.0842C41.9105 13.9047 42.0582 13.7592 42.2403 13.7592ZM42.5701 18.3456H42.2403C42.0582 18.3456 41.9105 18.4911 41.9105 18.6706V21.4695C41.9105 21.649 42.0582 21.7945 42.2403 21.7945H42.5701C42.7523 21.7945 42.8999 21.649 42.8999 21.4695V18.6706C42.8999 18.4911 42.7523 18.3456 42.5701 18.3456ZM42.2403 22.932H42.5701C42.7523 22.932 42.8999 23.0775 42.8999 23.257V26.0559C42.8999 26.2354 42.7523 26.3809 42.5701 26.3809H42.2403C42.0582 26.3809 41.9105 26.2354 41.9105 26.0559V23.257C41.9105 23.0775 42.0582 22.932 42.2403 22.932ZM42.5701 27.5184H42.2403C42.0582 27.5184 41.9105 27.6639 41.9105 27.8434V30.6423C41.9105 30.8218 42.0582 30.9673 42.2403 30.9673H42.5701C42.7523 30.9673 42.8999 30.8218 42.8999 30.6423V27.8434C42.8999 27.6639 42.7523 27.5184 42.5701 27.5184ZM57.457 30.9673H52.6467C52.518 30.9673 52.401 30.8935 52.3471 30.7782L44.0845 13.0961C44.0646 13.0535 44.0543 13.0071 44.0543 12.9601L44.056 2.28246C44.0561 1.93291 44.5394 1.82985 44.6861 2.14811L57.7572 30.5079C57.8564 30.7231 57.6968 30.9673 57.457 30.9673ZM0.575587 30.9529C0.221379 30.9529 0 30.7347 0 30.3857V0.629545C0 0.498655 0.0885517 0.411392 0.221379 0.411392H8.54526C9.78498 0.411392 10.5377 0.411392 11.069 0.455022C21.6952 1.4149 23.0678 13.5006 15.3637 17.5583C14.6996 17.9073 14.5225 18.4745 14.921 19.0417L23.0678 30.4729C23.2891 30.7783 23.1563 30.9529 22.8021 30.9529H17.6218C17.2676 30.9529 16.9134 30.7783 16.692 30.4729L8.76664 19.2162C8.58953 18.9544 8.41243 18.5618 8.41243 18.2127V14.4168C8.41243 14.0678 8.63381 13.8496 8.98802 13.8496H9.78498C16.5149 13.8496 16.4706 5.34166 9.78498 5.34166H6.55284C5.80015 5.34166 5.31311 5.86523 5.31311 6.60695V30.3857C5.31311 30.7347 5.09173 30.9529 4.73753 30.9529H0.575587ZM61.3581 30.9529C61.0039 30.9529 60.8268 30.7347 60.8711 30.3857L65.343 0.978592C65.3873 0.629545 65.6529 0.411392 66.0071 0.411392H66.627C66.9812 0.411392 67.3354 0.629545 67.4682 0.891331L78.3601 21.2669C78.5372 21.6159 78.7586 21.7468 78.9357 21.7468C79.1571 21.7468 79.3342 21.6159 79.5113 21.2669L90.4032 0.891331C90.536 0.629545 90.8902 0.411392 91.2444 0.411392H91.8643C92.1742 0.411392 92.4841 0.629545 92.5284 0.978592L93.1483 5.2544C93.1925 5.60344 93.1483 6.03975 92.9712 6.34517L80.0869 30.4293C79.9098 30.7347 79.5998 30.9529 79.2456 30.9529H78.6258C78.2716 30.9529 77.9616 30.7347 77.7845 30.4293L69.2835 14.5914C68.9293 13.9369 68.6194 14.0242 68.5308 14.7223L66.0957 30.3857C66.0514 30.7347 65.7857 30.9529 65.4315 30.9529H61.3581ZM90.4032 21.136C90.3589 20.7869 90.4474 20.3506 90.6245 20.0452L94.0781 13.5442C94.2552 13.2388 94.388 13.2824 94.4323 13.6315L97.0003 30.3857C97.0445 30.7347 96.8675 30.9529 96.5132 30.9529H92.4399C92.0857 30.9529 91.82 30.7347 91.7757 30.3857L90.4032 21.136ZM103.515 19.3471C103.161 19.3471 102.94 19.5653 102.94 19.9143C103.205 27.9424 109.36 32 115.47 32C121.757 32 128 27.7678 128 19.3471V0.978592C128 0.629545 127.734 0.411392 127.424 0.411392H123.262C122.908 0.411392 122.687 0.629545 122.687 0.978592V19.3471C122.687 24.1029 119.101 26.5025 115.47 26.5025C112.016 26.5025 108.519 24.2774 108.253 19.9143C108.209 19.5653 108.032 19.3471 107.677 19.3471H103.515ZM102.94 0.978592V14.0242C102.94 14.3732 103.161 14.5914 103.515 14.5914H107.677C108.032 14.5914 108.253 14.3732 108.253 14.0242V0.978592C108.253 0.629545 108.032 0.411392 107.677 0.411392H103.515C103.161 0.411392 102.94 0.629545 102.94 0.978592Z" fill="#170C03"/>
</g>
</svg>
